# xmcd
#
# Track frame offsets:
# 150
# 9536
# 20368
# 29458
# 43511
# 56150
# 67938
# 80849
# 93383
# 102023
# 113099
# 124575
# 136783
# 148537
# 160344
# 173583
# 186524
# 199103
# 210245
# 221071
#
# Disc length: 3074 seconds
#
#
# Revision: 3
# Processed by: cddbd v1.5.1PL2 Copyright (c) Steve Scherf et al.
# Submitted via: FreeRIP 2.944 
#
DISCID=120c0014
DTITLE=Various Artist - Boppin' The Blues [CD 4)
DYEAR=2001
DGENRE=Blues
TTITLE0=Ike Turner - Get Over It Baby
TTITLE1=Billy 'The Kid' Emerson - Hey Little Girl
TTITLE2=Rosco Gordon - I'm Gonna Shake It
TTITLE3=Earl Hooker - The Hucklebuck
TTITLE4=Rufus Thomas - Tiger Man
TTITLE5=Little Junior's Blue Flames - Love My Baby
TTITLE6=Billy 'Red' Love - Gee I Wish
TTITLE7=Guitar Red - Go Ahead On
TTITLE8=Eleven Parr and The In The Groove Boys - Mean, Mean Woman
TTITLE9=Johnson Combo - Baby Tell Me Your Name
TTITLE10=Albert Williams - Rhumba Chillen
TTITLE11=Charlie Booker - Walked All Night
TTITLE12=Doctor Ross - My Be Bop Gal
TTITLE13=Rosco Gordon - Bop With Me Baby
TTITLE14=Little Milton - Somebody Told Me
TTITLE15=Doctor Ross - The Boogie Disease
TTITLE16=Joe Hill Louis - Boogie In The Park
TTITLE17=Rosco Gordon - T-Model Boogie
TTITLE18=Billy Emerson - Shim Sham Shimmy
TTITLE19=Bill Pinkey - After The Hop
EXTD=The Ultimate Blues Box [CD 4 of 6)
EXTT0=
EXTT1=
EXTT2=
EXTT3=
EXTT4=
EXTT5=
EXTT6=
EXTT7=
EXTT8=
EXTT9=
EXTT10=
EXTT11=
EXTT12=
EXTT13=
EXTT14=
EXTT15=
EXTT16=
EXTT17=
EXTT18=
EXTT19=
PLAYORDER=
